<svg width="28" height="28" viewBox="0 0 28 28" fill="none" xmlns="http://www.w3.org/2000/svg">
<path fill-rule="evenodd" clip-rule="evenodd" d="M13.9171 13C16.1263 13 17.9171 11.2091 17.9171 9C17.9171 6.79086 16.1263 5 13.9171 5C11.708 5 9.91711 6.79086 9.91711 9C9.91711 11.2091 11.708 13 13.9171 13ZM13.9171 15C17.2308 15 19.9171 12.3137 19.9171 9C19.9171 5.68629 17.2308 3 13.9171 3C10.6034 3 7.91711 5.68629 7.91711 9C7.91711 12.3137 10.6034 15 13.9171 15Z" fill="black"/>
<path fill-rule="evenodd" clip-rule="evenodd" d="M5.01903 25.5H23.8337C23.6173 23.1127 22.9691 21.3507 21.7468 20.1569C20.5124 18.9512 18.3562 18 14.4171 18C10.7328 18 8.57304 18.9358 7.27536 20.1736C5.99814 21.3919 5.27215 23.1723 5.01903 25.5ZM3.0084 25.5018C3.52848 20.103 6.38286 16 14.4171 16C22.8972 16 25.4012 20.1026 25.8411 25.5009C25.9309 26.6018 25.0217 27.5 23.9171 27.5H4.9171C3.81253 27.5 2.90249 26.6013 3.0084 25.5018Z" fill="black"/>
</svg>
