<svg width="28" height="28" viewBox="0 0 28 28" fill="none" xmlns="http://www.w3.org/2000/svg">
<path d="M14.5858 8C14.5858 7.44775 14.1381 7 13.5858 7C13.0335 7 12.5858 7.44775 12.5858 8V17.3672L8.9379 13.7273C8.54724 13.3374 7.91467 13.3379 7.52444 13.728L7.29288 13.9597C6.90237 14.3501 6.90237 14.9834 7.29288 15.3738L12.8787 20.9597C13.2692 21.3501 13.9024 21.3501 14.2929 20.9597L19.8787 15.3738C20.2692 14.9834 20.2692 14.3501 19.8787 13.9597L19.6471 13.728C19.2569 13.3379 18.6243 13.3374 18.2337 13.7273L14.5858 17.3672V8Z" fill="black"/>
</svg>
